<svg width="259" height="87" viewBox="0 0 259 87" fill="none" xmlns="http://www.w3.org/2000/svg">
<path d="M22.3859 14.25H38.6729V16.019H24.3989V40.785H36.2939V42.554H24.3989V60H22.3859V14.25ZM56.8832 60.96C54.1632 60.96 51.7032 60.3 49.5032 58.98C47.3032 57.62 45.5832 55.84 44.3432 53.64C43.1032 51.4 42.4832 48.98 42.4832 46.38C42.4832 43.82 43.1032 41.44 44.3432 39.24C45.6232 37.04 47.3432 35.3 49.5032 34.02C51.7032 32.7 54.1432 32.04 56.8232 32.04C59.4632 32.04 61.8632 32.7 64.0232 34.02C66.2232 35.3 67.9432 37.04 69.1832 39.24C70.4232 41.44 71.0432 43.82 71.0432 46.38C71.0432 49.06 70.4432 51.52 69.2432 53.76C68.0432 55.96 66.3632 57.72 64.2032 59.04C62.0832 60.32 59.6432 60.96 56.8832 60.96ZM56.8832 59.28C59.1632 59.28 61.2432 58.7 63.1232 57.54C65.0032 56.38 66.4632 54.84 67.5032 52.92C68.5832 50.96 69.1232 48.82 69.1232 46.5C69.1232 44.22 68.5832 42.1 67.5032 40.14C66.4232 38.18 64.9432 36.62 63.0632 35.46C61.1832 34.3 59.1032 33.72 56.8232 33.72C54.5432 33.72 52.4432 34.32 50.5232 35.52C48.6432 36.68 47.1432 38.24 46.0232 40.2C44.9432 42.16 44.4032 44.28 44.4032 46.56C44.4032 48.84 44.9432 50.96 46.0232 52.92C47.1432 54.84 48.6432 56.38 50.5232 57.54C52.4432 58.7 54.5632 59.28 56.8832 59.28ZM86.6315 26.64C86.1515 26.64 85.7315 26.48 85.3715 26.16C85.0515 25.8 84.8915 25.38 84.8915 24.9C84.8915 24.46 85.0515 24.08 85.3715 23.76C85.7315 23.4 86.1515 23.22 86.6315 23.22C87.0715 23.22 87.4515 23.4 87.7715 23.76C88.1315 24.08 88.3115 24.46 88.3115 24.9C88.3115 25.38 88.1315 25.8 87.7715 26.16C87.4515 26.48 87.0715 26.64 86.6315 26.64ZM92.9915 26.64C92.5115 26.64 92.0915 26.48 91.7315 26.16C91.4115 25.8 91.2515 25.38 91.2515 24.9C91.2515 24.46 91.4115 24.08 91.7315 23.76C92.0915 23.4 92.5115 23.22 92.9915 23.22C93.4315 23.22 93.8115 23.4 94.1315 23.76C94.4915 24.08 94.6715 24.46 94.6715 24.9C94.6715 25.38 94.4915 25.8 94.1315 26.16C93.8115 26.48 93.4315 26.64 92.9915 26.64ZM89.8715 60.96C87.1515 60.96 84.6915 60.3 82.4915 58.98C80.2915 57.62 78.5715 55.84 77.3315 53.64C76.0915 51.4 75.4715 48.98 75.4715 46.38C75.4715 43.82 76.0915 41.44 77.3315 39.24C78.6115 37.04 80.3315 35.3 82.4915 34.02C84.6915 32.7 87.1315 32.04 89.8115 32.04C92.4515 32.04 94.8515 32.7 97.0115 34.02C99.2115 35.3 100.931 37.04 102.171 39.24C103.411 41.44 104.031 43.82 104.031 46.38C104.031 49.06 103.431 51.52 102.231 53.76C101.031 55.96 99.3515 57.72 97.1915 59.04C95.0715 60.32 92.6315 60.96 89.8715 60.96ZM89.8715 59.28C92.1515 59.28 94.2315 58.7 96.1115 57.54C97.9915 56.38 99.4515 54.84 100.491 52.92C101.571 50.96 102.111 48.82 102.111 46.5C102.111 44.22 101.571 42.1 100.491 40.14C99.4115 38.18 97.9315 36.62 96.0515 35.46C94.1715 34.3 92.0915 33.72 89.8115 33.72C87.5315 33.72 85.4315 34.32 83.5115 35.52C81.6315 36.68 80.1315 38.24 79.0115 40.2C77.9315 42.16 77.3915 44.28 77.3915 46.56C77.3915 48.84 77.9315 50.96 79.0115 52.92C80.1315 54.84 81.6315 56.38 83.5115 57.54C85.4315 58.7 87.5515 59.28 89.8715 59.28ZM122.74 60.66C120.14 60.66 117.74 60.02 115.54 58.74C113.38 57.46 111.66 55.74 110.38 53.58C109.1 51.42 108.46 49.06 108.46 46.5C108.46 43.94 109.1 41.58 110.38 39.42C111.66 37.26 113.38 35.54 115.54 34.26C117.74 32.98 120.14 32.34 122.74 32.34C125.26 32.34 127.66 33.02 129.94 34.38C132.22 35.7 133.9 37.44 134.98 39.6V15H136.9V60H134.98V53.46C133.78 55.62 132.04 57.36 129.76 58.68C127.52 60 125.18 60.66 122.74 60.66ZM122.68 58.98C124.88 58.98 126.92 58.42 128.8 57.3C130.72 56.14 132.24 54.62 133.36 52.74C134.52 50.82 135.1 48.76 135.1 46.56C135.1 44.36 134.52 42.3 133.36 40.38C132.24 38.46 130.72 36.92 128.8 35.76C126.92 34.6 124.88 34.02 122.68 34.02C120.48 34.02 118.44 34.6 116.56 35.76C114.68 36.88 113.18 38.4 112.06 40.32C110.94 42.24 110.38 44.3 110.38 46.5C110.38 48.74 110.92 50.82 112 52.74C113.12 54.62 114.62 56.14 116.5 57.3C118.42 58.42 120.48 58.98 122.68 58.98ZM145.591 13.5H147.575C150.84 13.5 153.238 14.2647 154.767 15.794C156.296 17.282 157.061 19.4933 157.061 22.428C157.061 24.1227 156.565 25.7553 155.573 27.326C154.581 28.8553 153.382 29.8887 151.977 30.426C155.532 31.0047 158.28 32.4927 160.223 34.89C162.166 37.2873 163.137 40.4287 163.137 44.314C163.137 47.414 162.455 50.1627 161.091 52.56C159.727 54.916 157.846 56.7553 155.449 58.078C153.093 59.3593 150.468 60 147.575 60H145.591V13.5ZM148.071 29.868C150.055 29.868 151.729 29.1447 153.093 27.698C154.457 26.2513 155.139 24.474 155.139 22.366C155.139 20.01 154.56 18.2327 153.403 17.034C152.287 15.8353 150.51 15.236 148.071 15.236H147.575V29.868H148.071ZM148.071 58.264C150.51 58.264 152.721 57.6853 154.705 56.528C156.689 55.3293 158.26 53.676 159.417 51.568C160.574 49.46 161.153 47.0833 161.153 44.438C161.153 40.1807 160.016 36.9773 157.743 34.828C155.511 32.6373 152.287 31.542 148.071 31.542H147.575V58.264H148.071ZM182.873 60.992C180.062 60.992 177.52 60.31 175.247 58.946C172.973 57.5407 171.196 55.7013 169.915 53.428C168.633 51.1133 167.993 48.6127 167.993 45.926C167.993 43.2807 168.633 40.8213 169.915 38.548C171.237 36.2747 173.015 34.4767 175.247 33.154C177.52 31.79 180.041 31.108 182.811 31.108C185.539 31.108 188.019 31.79 190.251 33.154C192.524 34.4767 194.301 36.2747 195.583 38.548C196.864 40.8213 197.505 43.2807 197.505 45.926C197.505 48.6953 196.885 51.2373 195.645 53.552C194.405 55.8253 192.669 57.644 190.437 59.008C188.246 60.3307 185.725 60.992 182.873 60.992ZM182.873 59.256C185.229 59.256 187.378 58.6567 189.321 57.458C191.263 56.2593 192.772 54.668 193.847 52.684C194.963 50.6587 195.521 48.4473 195.521 46.05C195.521 43.694 194.963 41.5033 193.847 39.478C192.731 37.4527 191.201 35.8407 189.259 34.642C187.316 33.4433 185.167 32.844 182.811 32.844C180.455 32.844 178.285 33.464 176.301 34.704C174.358 35.9027 172.808 37.5147 171.651 39.54C170.535 41.5653 169.977 43.756 169.977 46.112C169.977 48.468 170.535 50.6587 171.651 52.684C172.808 54.668 174.358 56.2593 176.301 57.458C178.285 58.6567 180.475 59.256 182.873 59.256ZM216.961 60.992C214.15 60.992 211.608 60.31 209.335 58.946C207.061 57.5407 205.284 55.7013 204.003 53.428C202.721 51.1133 202.081 48.6127 202.081 45.926C202.081 43.2807 202.721 40.8213 204.003 38.548C205.325 36.2747 207.103 34.4767 209.335 33.154C211.608 31.79 214.129 31.108 216.899 31.108C219.627 31.108 222.107 31.79 224.339 33.154C226.612 34.4767 228.389 36.2747 229.671 38.548C230.952 40.8213 231.593 43.2807 231.593 45.926C231.593 48.6953 230.973 51.2373 229.733 53.552C228.493 55.8253 226.757 57.644 224.525 59.008C222.334 60.3307 219.813 60.992 216.961 60.992ZM216.961 59.256C219.317 59.256 221.466 58.6567 223.409 57.458C225.351 56.2593 226.86 54.668 227.935 52.684C229.051 50.6587 229.609 48.4473 229.609 46.05C229.609 43.694 229.051 41.5033 227.935 39.478C226.819 37.4527 225.289 35.8407 223.347 34.642C221.404 33.4433 219.255 32.844 216.899 32.844C214.543 32.844 212.373 33.464 210.389 34.704C208.446 35.9027 206.896 37.5147 205.739 39.54C204.623 41.5653 204.065 43.756 204.065 46.112C204.065 48.468 204.623 50.6587 205.739 52.684C206.896 54.668 208.446 56.2593 210.389 57.458C212.373 58.6567 214.563 59.256 216.961 59.256ZM208.219 23.172H225.393V24.908H208.219V23.172ZM237.655 15.12H239.575V42.36L250.255 33H252.715L240.355 43.8L255.835 60H253.255L239.575 45.6V60H237.655V15.12Z" fill="#0B0A0A"/>
<path d="M22.3859 14.25V13.25H21.3859V14.25H22.3859ZM38.6729 14.25H39.6729V13.25H38.6729V14.25ZM38.6729 16.019V17.019H39.6729V16.019H38.6729ZM24.3989 16.019V15.019H23.3989V16.019H24.3989ZM24.3989 40.785H23.3989V41.785H24.3989V40.785ZM36.2939 40.785H37.2939V39.785H36.2939V40.785ZM36.2939 42.554V43.554H37.2939V42.554H36.2939ZM24.3989 42.554V41.554H23.3989V42.554H24.3989ZM24.3989 60V61H25.3989V60H24.3989ZM22.3859 60H21.3859V61H22.3859V60ZM22.3859 15.25H38.6729V13.25H22.3859V15.25ZM37.6729 14.25V16.019H39.6729V14.25H37.6729ZM38.6729 15.019H24.3989V17.019H38.6729V15.019ZM23.3989 16.019V40.785H25.3989V16.019H23.3989ZM24.3989 41.785H36.2939V39.785H24.3989V41.785ZM35.2939 40.785V42.554H37.2939V40.785H35.2939ZM36.2939 41.554H24.3989V43.554H36.2939V41.554ZM23.3989 42.554V60H25.3989V42.554H23.3989ZM24.3989 59H22.3859V61H24.3989V59ZM23.3859 60V14.25H21.3859V60H23.3859ZM49.5032 58.98L48.9773 59.8307L48.9887 59.8375L49.5032 58.98ZM44.3432 53.64L43.4683 54.1243L43.472 54.131L44.3432 53.64ZM44.3432 39.24L43.4788 38.7371L43.472 38.749L44.3432 39.24ZM49.5032 34.02L50.013 34.8803L50.0177 34.8775L49.5032 34.02ZM64.0232 34.02L63.5017 34.8733L63.511 34.8789L63.5203 34.8843L64.0232 34.02ZM69.2432 53.76L70.1211 54.2389L70.1247 54.2322L69.2432 53.76ZM64.2032 59.04L64.7201 59.8961L64.7246 59.8933L64.2032 59.04ZM63.1232 57.54L62.5981 56.689L62.5981 56.689L63.1232 57.54ZM67.5032 52.92L66.6273 52.4374L66.6239 52.4437L67.5032 52.92ZM67.5032 40.14L68.379 39.6574L68.379 39.6574L67.5032 40.14ZM63.0632 35.46L62.5381 36.311L62.5381 36.311L63.0632 35.46ZM50.5232 35.52L51.0483 36.371L51.0532 36.368L50.5232 35.52ZM46.0232 40.2L45.1549 39.7039L45.1511 39.7106L45.1473 39.7174L46.0232 40.2ZM46.0232 52.92L45.1473 53.4026L45.1532 53.4133L45.1594 53.4239L46.0232 52.92ZM50.5232 57.54L49.9981 58.3911L50.0061 58.3959L50.5232 57.54ZM56.8832 59.96C54.3331 59.96 52.0528 59.3436 50.0177 58.1225L48.9887 59.8375C51.3536 61.2564 53.9933 61.96 56.8832 61.96V59.96ZM50.029 58.1294C47.969 56.856 46.3694 55.1982 45.2143 53.149L43.472 54.131C44.797 56.4818 46.6374 58.384 48.9774 59.8306L50.029 58.1294ZM45.2181 53.1557C44.0615 51.0663 43.4832 48.8133 43.4832 46.38H41.4832C41.4832 49.1467 42.1449 51.7337 43.4683 54.1243L45.2181 53.1557ZM43.4832 46.38C43.4832 43.9896 44.06 41.779 45.2143 39.731L43.472 38.749C42.1464 41.101 41.4832 43.6504 41.4832 46.38H43.4832ZM45.2075 39.7429C46.403 37.6882 48.0018 36.0721 50.013 34.8803L48.9934 33.1597C46.6846 34.5279 44.8434 36.3918 43.4788 38.7371L45.2075 39.7429ZM50.0177 34.8775C52.0552 33.655 54.316 33.04 56.8232 33.04V31.04C53.9704 31.04 51.3512 31.745 48.9887 33.1625L50.0177 34.8775ZM56.8232 33.04C59.2874 33.04 61.5057 33.6535 63.5017 34.8733L64.5446 33.1667C62.2207 31.7465 59.6389 31.04 56.8232 31.04V33.04ZM63.5203 34.8843C65.5678 36.0756 67.1601 37.6873 68.312 39.731L70.0543 38.749C68.7263 36.3927 66.8786 34.5244 64.5261 33.1556L63.5203 34.8843ZM68.312 39.731C69.4664 41.779 70.0432 43.9896 70.0432 46.38H72.0432C72.0432 43.6504 71.38 41.101 70.0543 38.749L68.312 39.731ZM70.0432 46.38C70.0432 48.9045 69.4796 51.201 68.3617 53.2878L70.1247 54.2322C71.4067 51.839 72.0432 49.2155 72.0432 46.38H70.0432ZM68.3653 53.2811C67.2501 55.3256 65.6937 56.9572 63.6817 58.1867L64.7246 59.8933C67.0326 58.4828 68.8362 56.5944 70.1211 54.2389L68.3653 53.2811ZM63.6863 58.1839C61.7397 59.3593 59.4824 59.96 56.8832 59.96V61.96C59.8039 61.96 62.4267 61.2807 64.7201 59.8961L63.6863 58.1839ZM56.8832 60.28C59.3424 60.28 61.6052 59.6517 63.6483 58.391L62.5981 56.689C60.8812 57.7483 58.984 58.28 56.8832 58.28V60.28ZM63.6483 58.391C65.6753 57.1404 67.2582 55.4719 68.3825 53.3963L66.6239 52.4437C65.6682 54.2081 64.3311 55.6196 62.5981 56.689L63.6483 58.391ZM68.379 53.4026C69.5435 51.2893 70.1232 48.9823 70.1232 46.5H68.1232C68.1232 48.6577 67.6228 50.6307 66.6273 52.4374L68.379 53.4026ZM70.1232 46.5C70.1232 44.0546 69.5421 41.7681 68.379 39.6574L66.6273 40.6226C67.6243 42.4319 68.1232 44.3854 68.1232 46.5H70.1232ZM68.379 39.6574C67.217 37.5485 65.617 35.8607 63.5883 34.609L62.5381 36.311C64.2694 37.3793 65.6294 38.8115 66.6273 40.6226L68.379 39.6574ZM63.5883 34.609C61.5452 33.3483 59.2824 32.72 56.8232 32.72V34.72C58.924 34.72 60.8212 35.2517 62.5381 36.311L63.5883 34.609ZM56.8232 32.72C54.3572 32.72 52.0733 33.3719 49.9932 34.672L51.0532 36.368C52.8131 35.2681 54.7292 34.72 56.8232 34.72V32.72ZM49.9981 34.669C47.9726 35.9187 46.356 37.6021 45.1549 39.7039L46.8914 40.6961C47.9304 38.8779 49.3137 37.4413 51.0483 36.371L49.9981 34.669ZM45.1473 39.7174C43.9843 41.8281 43.4032 44.1146 43.4032 46.56H45.4032C45.4032 44.4454 45.9021 42.4919 46.899 40.6826L45.1473 39.7174ZM43.4032 46.56C43.4032 49.0054 43.9843 51.2919 45.1473 53.4026L46.899 52.4374C45.9021 50.6281 45.4032 48.6746 45.4032 46.56H43.4032ZM45.1594 53.4239C46.3616 55.4847 47.9775 57.1443 49.9981 58.391L51.0483 56.689C49.3089 55.6157 47.9248 54.1953 46.887 52.4161L45.1594 53.4239ZM50.0061 58.3959C52.0876 59.6535 54.3874 60.28 56.8832 60.28V58.28C54.7389 58.28 52.7988 57.7465 51.0403 56.6841L50.0061 58.3959ZM85.3715 26.16L84.6241 26.8244L84.6631 26.8683L84.7071 26.9074L85.3715 26.16ZM85.3715 23.76L84.6644 23.0529L84.6644 23.0529L85.3715 23.76ZM87.7715 23.76L87.0241 24.4244L87.0631 24.4683L87.1071 24.5074L87.7715 23.76ZM87.7715 26.16L88.4786 26.8671L88.4786 26.8671L87.7715 26.16ZM91.7315 26.16L90.9841 26.8244L91.0231 26.8683L91.0671 26.9074L91.7315 26.16ZM91.7315 23.76L92.4386 24.4671L92.4386 24.4671L91.7315 23.76ZM94.1315 23.76L93.3841 24.4244L93.4231 24.4683L93.4671 24.5074L94.1315 23.76ZM94.1315 26.16L94.8386 26.8671L94.8386 26.8671L94.1315 26.16ZM82.4915 58.98L81.9656 59.8307L81.977 59.8375L82.4915 58.98ZM77.3315 53.64L76.4565 54.1243L76.4603 54.131L77.3315 53.64ZM77.3315 39.24L76.467 38.7371L76.4603 38.749L77.3315 39.24ZM82.4915 34.02L83.0013 34.8803L83.006 34.8775L82.4915 34.02ZM97.0115 34.02L96.49 34.8733L96.4992 34.8789L96.5086 34.8843L97.0115 34.02ZM102.231 53.76L103.109 54.2389L103.113 54.2322L102.231 53.76ZM97.1915 59.04L97.7083 59.8961L97.7129 59.8933L97.1915 59.04ZM96.1115 57.54L95.5864 56.689L95.5864 56.689L96.1115 57.54ZM100.491 52.92L99.6156 52.4374L99.6122 52.4437L100.491 52.92ZM100.491 40.14L101.367 39.6574L101.367 39.6574L100.491 40.14ZM96.0515 35.46L95.5264 36.311L95.5264 36.311L96.0515 35.46ZM83.5115 35.52L84.0366 36.371L84.0415 36.368L83.5115 35.52ZM79.0115 40.2L78.1432 39.7039L78.1394 39.7106L78.1356 39.7174L79.0115 40.2ZM79.0115 52.92L78.1356 53.4026L78.1415 53.4133L78.1477 53.4239L79.0115 52.92ZM83.5115 57.54L82.9863 58.3911L82.9943 58.3959L83.5115 57.54ZM86.6315 25.64C86.3973 25.64 86.2135 25.5705 86.0358 25.4126L84.7071 26.9074C85.2495 27.3895 85.9056 27.64 86.6315 27.64V25.64ZM86.1189 25.4956C85.961 25.318 85.8915 25.1341 85.8915 24.9H83.8915C83.8915 25.6258 84.142 26.282 84.6241 26.8244L86.1189 25.4956ZM85.8915 24.9C85.8915 24.7336 85.9401 24.6056 86.0786 24.4671L84.6644 23.0529C84.1628 23.5544 83.8915 24.1864 83.8915 24.9H85.8915ZM86.0786 24.4671C86.2637 24.282 86.434 24.22 86.6315 24.22V22.22C85.8689 22.22 85.1993 22.518 84.6644 23.0529L86.0786 24.4671ZM86.6315 24.22C86.7568 24.22 86.8737 24.2552 87.0241 24.4244L88.5189 23.0956C88.0293 22.5448 87.3861 22.22 86.6315 22.22V24.22ZM87.1071 24.5074C87.2763 24.6578 87.3115 24.7746 87.3115 24.9H89.3115C89.3115 24.1454 88.9866 23.5022 88.4358 23.0126L87.1071 24.5074ZM87.3115 24.9C87.3115 25.0974 87.2494 25.2678 87.0644 25.4529L88.4786 26.8671C89.0135 26.3322 89.3115 25.6626 89.3115 24.9H87.3115ZM87.0644 25.4529C86.9259 25.5913 86.7979 25.64 86.6315 25.64V27.64C87.345 27.64 87.977 27.3687 88.4786 26.8671L87.0644 25.4529ZM92.9915 25.64C92.7573 25.64 92.5735 25.5705 92.3958 25.4126L91.0671 26.9074C91.6095 27.3895 92.2656 27.64 92.9915 27.64V25.64ZM92.4789 25.4956C92.321 25.318 92.2515 25.1341 92.2515 24.9H90.2515C90.2515 25.6259 90.502 26.282 90.9841 26.8244L92.4789 25.4956ZM92.2515 24.9C92.2515 24.7336 92.3001 24.6056 92.4386 24.4671L91.0244 23.0529C90.5228 23.5544 90.2515 24.1864 90.2515 24.9H92.2515ZM92.4386 24.4671C92.6237 24.282 92.794 24.22 92.9915 24.22V22.22C92.2289 22.22 91.5593 22.518 91.0244 23.0529L92.4386 24.4671ZM92.9915 24.22C93.1168 24.22 93.2337 24.2552 93.3841 24.4244L94.8789 23.0956C94.3893 22.5448 93.7461 22.22 92.9915 22.22V24.22ZM93.4671 24.5074C93.6363 24.6578 93.6715 24.7746 93.6715 24.9H95.6715C95.6715 24.1454 95.3466 23.5022 94.7958 23.0126L93.4671 24.5074ZM93.6715 24.9C93.6715 25.0974 93.6094 25.2678 93.4244 25.4529L94.8386 26.8671C95.3735 26.3322 95.6715 25.6626 95.6715 24.9H93.6715ZM93.4244 25.4529C93.2859 25.5913 93.1579 25.64 92.9915 25.64V27.64C93.705 27.64 94.337 27.3687 94.8386 26.8671L93.4244 25.4529ZM89.8715 59.96C87.3214 59.96 85.0411 59.3436 83.006 58.1225L81.977 59.8375C84.3418 61.2564 86.9816 61.96 89.8715 61.96V59.96ZM83.0173 58.1294C80.9573 56.856 79.3576 55.1982 78.2026 53.149L76.4603 54.131C77.7853 56.4818 79.6256 58.384 81.9656 59.8306L83.0173 58.1294ZM78.2064 53.1557C77.0497 51.0663 76.4715 48.8133 76.4715 46.38H74.4715C74.4715 49.1467 75.1332 51.7337 76.4566 54.1243L78.2064 53.1557ZM76.4715 46.38C76.4715 43.9896 77.0483 41.779 78.2026 39.731L76.4603 38.749C75.1346 41.101 74.4715 43.6504 74.4715 46.38H76.4715ZM78.1958 39.7429C79.3913 37.6882 80.9901 36.0721 83.0013 34.8803L81.9817 33.1597C79.6728 34.5279 77.8317 36.3918 76.4671 38.7371L78.1958 39.7429ZM83.006 34.8775C85.0435 33.655 87.3043 33.04 89.8115 33.04V31.04C86.9587 31.04 84.3395 31.745 81.977 33.1625L83.006 34.8775ZM89.8115 33.04C92.2757 33.04 94.4939 33.6535 96.49 34.8733L97.5329 33.1667C95.209 31.7465 92.6272 31.04 89.8115 31.04V33.04ZM96.5086 34.8843C98.5561 36.0756 100.148 37.6873 101.3 39.731L103.043 38.749C101.715 36.3927 99.8669 34.5244 97.5144 33.1556L96.5086 34.8843ZM101.3 39.731C102.455 41.779 103.031 43.9896 103.031 46.38H105.031C105.031 43.6504 104.368 41.101 103.043 38.749L101.3 39.731ZM103.031 46.38C103.031 48.9045 102.468 51.201 101.35 53.2878L103.113 54.2322C104.395 51.839 105.031 49.2155 105.031 46.38H103.031ZM101.354 53.2811C100.238 55.3256 98.682 56.9572 96.67 58.1867L97.7129 59.8933C100.021 58.4828 101.825 56.5944 103.109 54.2389L101.354 53.2811ZM96.6746 58.1839C94.7279 59.3593 92.4707 59.96 89.8715 59.96V61.96C92.7922 61.96 95.415 61.2807 97.7083 59.8961L96.6746 58.1839ZM89.8715 60.28C92.3307 60.28 94.5935 59.6517 96.6366 58.391L95.5864 56.689C93.8694 57.7483 91.9723 58.28 89.8715 58.28V60.28ZM96.6366 58.391C98.6635 57.1404 100.246 55.4719 101.371 53.3963L99.6122 52.4437C98.6565 54.2081 97.3194 55.6196 95.5864 56.689L96.6366 58.391ZM101.367 53.4026C102.532 51.2893 103.111 48.9823 103.111 46.5H101.111C101.111 48.6577 100.611 50.6307 99.6156 52.4374L101.367 53.4026ZM103.111 46.5C103.111 44.0546 102.53 41.7681 101.367 39.6574L99.6156 40.6226C100.613 42.4319 101.111 44.3854 101.111 46.5H103.111ZM101.367 39.6574C100.205 37.5485 98.6053 35.8607 96.5766 34.609L95.5264 36.311C97.2577 37.3793 98.6177 38.8115 99.6156 40.6226L101.367 39.6574ZM96.5766 34.609C94.5335 33.3483 92.2707 32.72 89.8115 32.72V34.72C91.9123 34.72 93.8094 35.2517 95.5264 36.311L96.5766 34.609ZM89.8115 32.72C87.3454 32.72 85.0616 33.3719 82.9815 34.672L84.0415 36.368C85.8014 35.2681 87.7175 34.72 89.8115 34.72V32.72ZM82.9864 34.669C80.9609 35.9187 79.3443 37.6021 78.1432 39.7039L79.8797 40.6961C80.9187 38.8779 82.302 37.4413 84.0366 36.371L82.9864 34.669ZM78.1356 39.7174C76.9726 41.8281 76.3915 44.1146 76.3915 46.56H78.3915C78.3915 44.4454 78.8903 42.4919 79.8873 40.6826L78.1356 39.7174ZM76.3915 46.56C76.3915 49.0054 76.9726 51.2919 78.1356 53.4026L79.8873 52.4374C78.8903 50.6281 78.3915 48.6746 78.3915 46.56H76.3915ZM78.1477 53.4239C79.3498 55.4847 80.9658 57.1443 82.9864 58.391L84.0366 56.689C82.2971 55.6157 80.9131 54.1953 79.8752 52.4161L78.1477 53.4239ZM82.9943 58.3959C85.0759 59.6535 87.3757 60.28 89.8715 60.28V58.28C87.7272 58.28 85.7871 57.7465 84.0286 56.6841L82.9943 58.3959ZM115.54 58.74L115.03 59.6003L115.037 59.6043L115.54 58.74ZM110.38 53.58L111.24 53.0702L111.24 53.0702L110.38 53.58ZM110.38 39.42L109.519 38.9102L109.519 38.9102L110.38 39.42ZM115.54 34.26L115.037 33.3956L115.03 33.3997L115.54 34.26ZM129.94 34.38L129.427 35.2389L129.439 35.2454L129.94 34.38ZM134.98 39.6L134.085 40.0472L135.98 39.6H134.98ZM134.98 15V14H133.98V15H134.98ZM136.9 15H137.9V14H136.9V15ZM136.9 60V61H137.9V60H136.9ZM134.98 60H133.98V61H134.98V60ZM134.98 53.46H135.98V49.6009L134.106 52.9744L134.98 53.46ZM129.76 58.68L129.259 57.8145L129.252 57.8185L129.76 58.68ZM128.8 57.3L129.312 58.1591L129.317 58.1559L128.8 57.3ZM133.36 52.74L132.504 52.2229L132.501 52.2282L133.36 52.74ZM133.36 40.38L132.496 40.8839L132.5 40.8905L132.504 40.8971L133.36 40.38ZM128.8 35.76L128.275 36.6111L128.283 36.6159L128.8 35.76ZM116.56 35.76L117.072 36.6191L117.078 36.6151L117.085 36.611L116.56 35.76ZM112 52.74L111.128 53.2303L111.134 53.2411L111.141 53.2518L112 52.74ZM116.5 57.3L115.975 58.151L115.985 58.1575L115.996 58.1638L116.5 57.3ZM122.74 59.66C120.312 59.66 118.087 59.0648 116.043 57.8757L115.037 59.6043C117.393 60.9752 119.967 61.66 122.74 61.66V59.66ZM116.05 57.8797C114.034 56.6853 112.434 55.0858 111.24 53.0702L109.519 54.0898C110.885 56.3942 112.726 58.2347 115.03 59.6003L116.05 57.8797ZM111.24 53.0702C110.053 51.0677 109.46 48.8843 109.46 46.5H107.46C107.46 49.2357 108.146 51.7723 109.519 54.0898L111.24 53.0702ZM109.46 46.5C109.46 44.1157 110.053 41.9323 111.24 39.9298L109.519 38.9102C108.146 41.2277 107.46 43.7643 107.46 46.5H109.46ZM111.24 39.9298C112.434 37.9142 114.034 36.3147 116.05 35.1203L115.03 33.3997C112.726 34.7653 110.885 36.6058 109.519 38.9102L111.24 39.9298ZM116.043 35.1243C118.087 33.9352 120.312 33.34 122.74 33.34V31.34C119.967 31.34 117.393 32.0248 115.037 33.3957L116.043 35.1243ZM122.74 33.34C125.07 33.34 127.294 33.9661 129.427 35.2388L130.452 33.5212C128.026 32.0739 125.45 31.34 122.74 31.34V33.34ZM129.439 35.2454C131.566 36.4768 133.101 38.0779 134.085 40.0472L135.874 39.1528C134.699 36.8021 132.874 34.9232 130.441 33.5146L129.439 35.2454ZM135.98 39.6V15H133.98V39.6H135.98ZM134.98 16H136.9V14H134.98V16ZM135.9 15V60H137.9V15H135.9ZM136.9 59H134.98V61H136.9V59ZM135.98 60V53.46H133.98V60H135.98ZM134.106 52.9744C132.999 54.9658 131.393 56.5789 129.259 57.8146L130.261 59.5454C132.686 58.1411 134.56 56.2742 135.854 53.9456L134.106 52.9744ZM129.252 57.8185C127.155 59.054 124.989 59.66 122.74 59.66V61.66C125.37 61.66 127.884 60.946 130.267 59.5415L129.252 57.8185ZM122.68 59.98C125.059 59.98 127.276 59.3718 129.312 58.1591L128.288 56.4409C126.564 57.4682 124.701 57.98 122.68 57.98V59.98ZM129.317 58.1559C131.374 56.9132 133.013 55.2765 134.219 53.2518L132.501 52.2282C131.467 53.9635 130.066 55.3668 128.283 56.4441L129.317 58.1559ZM134.216 53.2571C135.468 51.1843 136.1 48.946 136.1 46.56H134.1C134.1 48.574 133.572 50.4557 132.504 52.2229L134.216 53.2571ZM136.1 46.56C136.1 44.174 135.468 41.9357 134.216 39.8629L132.504 40.8971C133.572 42.6643 134.1 44.546 134.1 46.56H136.1ZM134.224 39.8761C133.018 37.8102 131.379 36.1498 129.317 34.9041L128.283 36.6159C130.061 37.6902 131.461 39.1097 132.496 40.8839L134.224 39.8761ZM129.325 34.909C127.288 33.652 125.066 33.02 122.68 33.02V35.02C124.693 35.02 126.552 35.548 128.275 36.611L129.325 34.909ZM122.68 33.02C120.293 33.02 118.072 33.652 116.035 34.909L117.085 36.611C118.808 35.548 120.666 35.02 122.68 35.02V33.02ZM116.048 34.9009C114.02 36.109 112.4 37.7522 111.196 39.8161L112.924 40.8239C113.96 39.0478 115.339 37.651 117.072 36.6191L116.048 34.9009ZM111.196 39.8161C109.988 41.8874 109.38 44.121 109.38 46.5H111.38C111.38 44.479 111.892 42.5926 112.924 40.8239L111.196 39.8161ZM109.38 46.5C109.38 48.9087 109.963 51.158 111.128 53.2303L112.871 52.2497C111.877 50.482 111.38 48.5713 111.38 46.5H109.38ZM111.141 53.2518C112.344 55.2715 113.959 56.9073 115.975 58.151L117.025 56.449C115.281 55.3727 113.896 53.9685 112.859 52.2282L111.141 53.2518ZM115.996 58.1638C118.067 59.372 120.301 59.98 122.68 59.98V57.98C120.659 57.98 118.772 57.468 117.004 56.4362L115.996 58.1638ZM145.591 13.5V12.5H144.591V13.5H145.591ZM154.767 15.794L154.06 16.5012L154.07 16.5107L154.767 15.794ZM155.573 27.326L156.412 27.8702L156.418 27.86L155.573 27.326ZM151.977 30.426L151.62 29.4919L148.154 30.8169L151.816 31.413L151.977 30.426ZM160.223 34.89L161 34.2604L161 34.2604L160.223 34.89ZM161.091 52.56L161.956 53.0611L161.96 53.0545L161.091 52.56ZM155.449 58.078L155.927 58.9565L155.932 58.9536L155.449 58.078ZM145.591 60H144.591V61H145.591V60ZM153.093 27.698L153.82 28.384L153.82 28.384L153.093 27.698ZM153.403 17.034L152.671 17.7154L152.677 17.7221L152.683 17.7286L153.403 17.034ZM147.575 15.236V14.236H146.575V15.236H147.575ZM147.575 29.868H146.575V30.868H147.575V29.868ZM154.705 56.528L155.209 57.3918L155.215 57.3879L155.222 57.3839L154.705 56.528ZM159.417 51.568L158.54 51.0867L158.54 51.0867L159.417 51.568ZM157.743 34.828L157.042 35.5417L157.049 35.5482L157.056 35.5546L157.743 34.828ZM147.575 31.542V30.542H146.575V31.542H147.575ZM147.575 58.264H146.575V59.264H147.575V58.264ZM145.591 14.5H147.575V12.5H145.591V14.5ZM147.575 14.5C150.708 14.5 152.795 15.2362 154.06 16.5011L155.474 15.0869C153.68 13.2931 150.972 12.5 147.575 12.5V14.5ZM154.07 16.5107C155.342 17.7486 156.061 19.6593 156.061 22.428H158.061C158.061 19.3273 157.251 16.8154 155.464 15.0773L154.07 16.5107ZM156.061 22.428C156.061 23.9156 155.629 25.3652 154.727 26.792L156.418 27.86C157.501 26.1454 158.061 24.3297 158.061 22.428H156.061ZM154.734 26.7818C153.832 28.1719 152.788 29.0451 151.62 29.4919L152.334 31.3601C153.976 30.7322 155.329 29.5388 156.412 27.8702L154.734 26.7818ZM151.816 31.413C155.172 31.9592 157.683 33.3443 159.446 35.5196L161 34.2604C158.877 31.641 155.892 30.0501 152.138 29.439L151.816 31.413ZM159.446 35.5196C161.21 37.6967 162.137 40.5971 162.137 44.314H164.137C164.137 40.2602 163.121 36.8779 161 34.2604L159.446 35.5196ZM162.137 44.314C162.137 47.2625 161.49 49.8368 160.222 52.0655L161.96 53.0545C163.42 50.4885 164.137 47.5655 164.137 44.314H162.137ZM160.225 52.059C158.953 54.2567 157.205 55.967 154.966 57.2024L155.932 58.9536C158.487 57.5437 160.501 55.5753 161.956 53.061L160.225 52.059ZM154.971 57.1995C152.773 58.3949 150.315 59 147.575 59V61C150.622 61 153.413 60.3238 155.927 58.9565L154.971 57.1995ZM147.575 59H145.591V61H147.575V59ZM146.591 60V13.5H144.591V60H146.591ZM148.071 30.868C150.331 30.868 152.268 30.0306 153.82 28.384L152.365 27.012C151.19 28.2588 149.779 28.868 148.071 28.868V30.868ZM153.82 28.384C155.371 26.7398 156.139 24.7122 156.139 22.366H154.139C154.139 24.2358 153.543 25.7628 152.365 27.012L153.82 28.384ZM156.139 22.366C156.139 19.8588 155.523 17.7899 154.122 16.3394L152.683 17.7286C153.598 18.6755 154.139 20.1612 154.139 22.366H156.139ZM154.135 16.3526C152.753 14.8689 150.651 14.236 148.071 14.236V16.236C150.368 16.236 151.82 16.8017 152.671 17.7154L154.135 16.3526ZM148.071 14.236H147.575V16.236H148.071V14.236ZM146.575 15.236V29.868H148.575V15.236H146.575ZM147.575 30.868H148.071V28.868H147.575V30.868ZM148.071 59.264C150.675 59.264 153.062 58.6439 155.209 57.3918L154.201 55.6642C152.379 56.7268 150.344 57.264 148.071 57.264V59.264ZM155.222 57.3839C157.362 56.0907 159.055 54.3056 160.293 52.0493L158.54 51.0867C157.464 53.0464 156.015 54.568 154.188 55.6721L155.222 57.3839ZM160.293 52.0493C161.54 49.7794 162.153 47.2344 162.153 44.438H160.153C160.153 46.9323 159.609 49.1406 158.54 51.0867L160.293 52.0493ZM162.153 44.438C162.153 40.0084 160.967 36.5001 158.43 34.1014L157.056 35.5546C159.065 37.4546 160.153 40.353 160.153 44.438H162.153ZM158.443 34.1143C155.967 31.6836 152.455 30.542 148.071 30.542V32.542C152.118 32.542 155.055 33.591 157.042 35.5417L158.443 34.1143ZM148.071 30.542H147.575V32.542H148.071V30.542ZM146.575 31.542V58.264H148.575V31.542H146.575ZM147.575 59.264H148.071V57.264H147.575V59.264ZM175.247 58.946L174.721 59.7967L174.732 59.8035L175.247 58.946ZM169.915 53.428L169.04 53.9123L169.044 53.919L169.915 53.428ZM169.915 38.548L169.05 38.0451L169.044 38.057L169.915 38.548ZM175.247 33.154L175.757 34.0143L175.761 34.0115L175.247 33.154ZM190.251 33.154L189.729 34.0073L189.739 34.0129L189.748 34.0183L190.251 33.154ZM195.645 53.552L196.523 54.0309L196.526 54.0242L195.645 53.552ZM190.437 59.008L190.954 59.8641L190.958 59.8613L190.437 59.008ZM189.321 57.458L188.796 56.607L188.796 56.607L189.321 57.458ZM193.847 52.684L192.971 52.2014L192.967 52.2077L193.847 52.684ZM193.847 39.478L194.723 38.9954L194.723 38.9954L193.847 39.478ZM189.259 34.642L188.734 35.493L188.734 35.493L189.259 34.642ZM176.301 34.704L176.826 35.555L176.831 35.552L176.301 34.704ZM171.651 39.54L170.782 39.0439L170.779 39.0506L170.775 39.0574L171.651 39.54ZM171.651 52.684L170.775 53.1666L170.781 53.1773L170.787 53.1879L171.651 52.684ZM176.301 57.458L175.776 58.3091L175.784 58.3139L176.301 57.458ZM182.873 59.992C180.232 59.992 177.87 59.3536 175.761 58.0885L174.732 59.8035C177.17 61.2664 179.892 61.992 182.873 61.992V59.992ZM175.773 58.0954C173.639 56.7766 171.982 55.0596 170.786 52.937L169.044 53.919C170.41 56.3431 172.308 58.3047 174.721 59.7966L175.773 58.0954ZM170.79 52.9437C169.592 50.7796 168.993 48.446 168.993 45.926H166.993C166.993 48.7794 167.675 51.447 169.04 53.9123L170.79 52.9437ZM168.993 45.926C168.993 43.4502 169.59 41.1603 170.786 39.039L169.044 38.057C167.677 40.4823 166.993 43.1111 166.993 45.926H168.993ZM170.779 39.0509C172.017 36.9229 173.673 35.2488 175.757 34.0143L174.737 32.2937C172.356 33.7046 170.458 35.6265 169.05 38.0451L170.779 39.0509ZM175.761 34.0115C177.872 32.745 180.214 32.108 182.811 32.108V30.108C179.869 30.108 177.168 30.835 174.732 32.2965L175.761 34.0115ZM182.811 32.108C185.363 32.108 187.661 32.7435 189.729 34.0073L190.772 32.3007C188.376 30.8365 185.714 30.108 182.811 30.108V32.108ZM189.748 34.0183C191.869 35.2523 193.518 36.9219 194.712 39.039L196.454 38.057C195.084 35.6274 193.179 33.701 190.754 32.2896L189.748 34.0183ZM194.712 39.039C195.907 41.1603 196.505 43.4502 196.505 45.926H198.505C198.505 43.1111 197.821 40.4823 196.454 38.057L194.712 39.039ZM196.505 45.926C196.505 48.5399 195.921 50.9183 194.763 53.0798L196.526 54.0242C197.848 51.5563 198.505 48.8508 198.505 45.926H196.505ZM194.767 53.0731C193.612 55.191 191.999 56.8812 189.915 58.1547L190.958 59.8613C193.338 58.4068 195.198 56.4597 196.523 54.0309L194.767 53.0731ZM189.92 58.1519C187.903 59.3699 185.564 59.992 182.873 59.992V61.992C185.885 61.992 188.59 61.2914 190.954 59.8641L189.92 58.1519ZM182.873 60.256C185.408 60.256 187.74 59.6083 189.846 58.309L188.796 56.607C187.016 57.705 185.05 58.256 182.873 58.256V60.256ZM189.846 58.309C191.935 57.0197 193.567 55.2999 194.726 53.1603L192.967 52.2077C191.977 54.0361 190.591 55.499 188.796 56.607L189.846 58.309ZM194.723 53.1666C195.923 50.9879 196.521 48.6097 196.521 46.05H194.521C194.521 48.285 194.002 50.3294 192.971 52.2014L194.723 53.1666ZM196.521 46.05C196.521 43.5286 195.922 41.1714 194.723 38.9954L192.971 39.9606C194.004 41.8352 194.521 43.8594 194.521 46.05H196.521ZM194.723 38.9954C193.525 36.8211 191.875 35.0814 189.784 33.791L188.734 35.493C190.528 36.5999 191.937 38.0842 192.971 39.9606L194.723 38.9954ZM189.784 33.791C187.678 32.4917 185.346 31.844 182.811 31.844V33.844C184.988 33.844 186.954 34.395 188.734 35.493L189.784 33.791ZM182.811 31.844C180.269 31.844 177.915 32.5159 175.771 33.856L176.831 35.552C178.655 34.4121 180.641 33.844 182.811 33.844V31.844ZM175.776 33.853C173.688 35.1414 172.021 36.8767 170.782 39.0439L172.519 40.0361C173.595 38.1526 175.029 36.664 176.826 35.555L175.776 33.853ZM170.775 39.0574C169.576 41.2334 168.977 43.5906 168.977 46.112H170.977C170.977 43.9214 171.494 41.8972 172.527 40.0226L170.775 39.0574ZM168.977 46.112C168.977 48.6334 169.576 50.9906 170.775 53.1666L172.527 52.2014C171.494 50.3268 170.977 48.3026 170.977 46.112H168.977ZM170.787 53.1879C172.026 55.3127 173.692 57.0236 175.776 58.309L176.826 56.607C175.024 55.495 173.59 54.0233 172.515 52.1801L170.787 53.1879ZM175.784 58.3139C177.929 59.6102 180.3 60.256 182.873 60.256V58.256C180.651 58.256 178.64 57.7032 176.818 56.6021L175.784 58.3139ZM209.335 58.946L208.809 59.7967L208.82 59.8035L209.335 58.946ZM204.003 53.428L203.128 53.9123L203.131 53.919L204.003 53.428ZM204.003 38.548L203.138 38.0451L203.131 38.057L204.003 38.548ZM209.335 33.154L209.844 34.0143L209.849 34.0115L209.335 33.154ZM224.339 33.154L223.817 34.0073L223.826 34.0129L223.836 34.0183L224.339 33.154ZM229.733 53.552L230.611 54.0309L230.614 54.0242L229.733 53.552ZM224.525 59.008L225.041 59.8641L225.046 59.8613L224.525 59.008ZM223.409 57.458L222.884 56.607L222.884 56.607L223.409 57.458ZM227.935 52.684L227.059 52.2014L227.055 52.2077L227.935 52.684ZM227.935 39.478L228.81 38.9954L228.81 38.9954L227.935 39.478ZM223.347 34.642L222.822 35.493L222.822 35.493L223.347 34.642ZM210.389 34.704L210.914 35.555L210.919 35.552L210.389 34.704ZM205.739 39.54L204.87 39.0439L204.867 39.0506L204.863 39.0574L205.739 39.54ZM205.739 52.684L204.863 53.1666L204.869 53.1773L204.875 53.1879L205.739 52.684ZM210.389 57.458L209.863 58.3091L209.872 58.3139L210.389 57.458ZM208.219 23.172V22.172H207.219V23.172H208.219ZM225.393 23.172H226.393V22.172H225.393V23.172ZM225.393 24.908V25.908H226.393V24.908H225.393ZM208.219 24.908H207.219V25.908H208.219V24.908ZM216.961 59.992C214.32 59.992 211.958 59.3536 209.849 58.0885L208.82 59.8035C211.258 61.2664 213.98 61.992 216.961 61.992V59.992ZM209.86 58.0954C207.727 56.7766 206.07 55.0596 204.874 52.937L203.131 53.919C204.498 56.3431 206.395 58.3047 208.809 59.7966L209.86 58.0954ZM204.878 52.9437C203.68 50.7796 203.081 48.446 203.081 45.926H201.081C201.081 48.7794 201.763 51.447 203.128 53.9123L204.878 52.9437ZM203.081 45.926C203.081 43.4502 203.678 41.1603 204.874 39.039L203.131 38.057C201.764 40.4823 201.081 43.1111 201.081 45.926H203.081ZM204.867 39.0509C206.105 36.9229 207.761 35.2488 209.844 34.0143L208.825 32.2937C206.444 33.7046 204.545 35.6265 203.138 38.0451L204.867 39.0509ZM209.849 34.0115C211.96 32.745 214.302 32.108 216.899 32.108V30.108C213.956 30.108 211.256 30.835 208.82 32.2965L209.849 34.0115ZM216.899 32.108C219.451 32.108 221.749 32.7435 223.817 34.0073L224.86 32.3007C222.464 30.8365 219.802 30.108 216.899 30.108V32.108ZM223.836 34.0183C225.957 35.2523 227.606 36.9219 228.799 39.039L230.542 38.057C229.172 35.6274 227.267 33.701 224.842 32.2896L223.836 34.0183ZM228.799 39.039C229.995 41.1603 230.593 43.4502 230.593 45.926H232.593C232.593 43.1111 231.909 40.4823 230.542 38.057L228.799 39.039ZM230.593 45.926C230.593 48.5399 230.009 50.9183 228.851 53.0798L230.614 54.0242C231.936 51.5563 232.593 48.8508 232.593 45.926H230.593ZM228.855 53.0731C227.7 55.191 226.087 56.8812 224.003 58.1547L225.046 59.8613C227.426 58.4068 229.286 56.4597 230.611 54.0309L228.855 53.0731ZM224.008 58.1519C221.99 59.3699 219.652 59.992 216.961 59.992V61.992C219.973 61.992 222.677 61.2914 225.041 59.8641L224.008 58.1519ZM216.961 60.256C219.496 60.256 221.828 59.6083 223.934 58.309L222.884 56.607C221.104 57.705 219.137 58.256 216.961 58.256V60.256ZM223.934 58.309C226.023 57.0197 227.655 55.2999 228.814 53.1603L227.055 52.2077C226.065 54.0361 224.679 55.499 222.884 56.607L223.934 58.309ZM228.81 53.1666C230.011 50.9879 230.609 48.6097 230.609 46.05H228.609C228.609 48.285 228.09 50.3294 227.059 52.2014L228.81 53.1666ZM230.609 46.05C230.609 43.5286 230.009 41.1714 228.81 38.9954L227.059 39.9606C228.092 41.8352 228.609 43.8594 228.609 46.05H230.609ZM228.81 38.9954C227.612 36.8211 225.963 35.0814 223.872 33.791L222.822 35.493C224.615 36.5999 226.025 38.0842 227.059 39.9606L228.81 38.9954ZM223.872 33.791C221.766 32.4917 219.434 31.844 216.899 31.844V33.844C219.075 33.844 221.042 34.395 222.822 35.493L223.872 33.791ZM216.899 31.844C214.357 31.844 212.003 32.5159 209.859 33.856L210.919 35.552C212.743 34.4121 214.729 33.844 216.899 33.844V31.844ZM209.864 33.853C207.775 35.1414 206.109 36.8767 204.87 39.0439L206.607 40.0361C207.683 38.1526 209.117 36.664 210.914 35.555L209.864 33.853ZM204.863 39.0574C203.664 41.2334 203.065 43.5906 203.065 46.112H205.065C205.065 43.9214 205.581 41.8972 206.614 40.0226L204.863 39.0574ZM203.065 46.112C203.065 48.6334 203.664 50.9906 204.863 53.1666L206.614 52.2014C205.581 50.3268 205.065 48.3026 205.065 46.112H203.065ZM204.875 53.1879C206.114 55.3127 207.78 57.0236 209.864 58.309L210.914 56.607C209.112 55.495 207.678 54.0233 206.602 52.1801L204.875 53.1879ZM209.872 58.3139C212.017 59.6102 214.388 60.256 216.961 60.256V58.256C214.739 58.256 212.728 57.7032 210.906 56.6021L209.872 58.3139ZM208.219 24.172H225.393V22.172H208.219V24.172ZM224.393 23.172V24.908H226.393V23.172H224.393ZM225.393 23.908H208.219V25.908H225.393V23.908ZM209.219 24.908V23.172H207.219V24.908H209.219ZM237.655 15.12V14.12H236.655V15.12H237.655ZM239.575 15.12H240.575V14.12H239.575V15.12ZM239.575 42.36H238.575V44.5661L240.234 43.1121L239.575 42.36ZM250.255 33V32H249.878L249.595 32.2479L250.255 33ZM252.715 33L253.372 33.753L255.379 32H252.715V33ZM240.355 43.8L239.697 43.047L238.909 43.7349L239.632 44.4909L240.355 43.8ZM255.835 60V61H258.173L256.558 59.3091L255.835 60ZM253.255 60L252.53 60.6887L252.825 61H253.255V60ZM239.575 45.6L240.3 44.9112L238.575 43.0955V45.6H239.575ZM239.575 60V61H240.575V60H239.575ZM237.655 60H236.655V61H237.655V60ZM237.655 16.12H239.575V14.12H237.655V16.12ZM238.575 15.12V42.36H240.575V15.12H238.575ZM240.234 43.1121L250.914 33.7521L249.595 32.2479L238.915 41.6079L240.234 43.1121ZM250.255 34H252.715V32H250.255V34ZM252.057 32.247L239.697 43.047L241.012 44.553L253.372 33.753L252.057 32.247ZM239.632 44.4909L255.112 60.6909L256.558 59.3091L241.078 43.1091L239.632 44.4909ZM255.835 59H253.255V61H255.835V59ZM253.98 59.3113L240.3 44.9112L238.85 46.2887L252.53 60.6887L253.98 59.3113ZM238.575 45.6V60H240.575V45.6H238.575ZM239.575 59H237.655V61H239.575V59ZM238.655 60V15.12H236.655V60H238.655Z" fill="black" fill-opacity="0.25"/>
<g filter="url(#filter0_d)">
<rect x="5" y="1" width="51" height="77" stroke="#FF665A" stroke-width="2"/>
</g>
<defs>
<filter id="filter0_d" x="0" y="0" width="61" height="87" filterUnits="userSpaceOnUse" color-interpolation-filters="sRGB">
<feFlood flood-opacity="0" result="BackgroundImageFix"/>
<feColorMatrix in="SourceAlpha" type="matrix" values="0 0 0 0 0 0 0 0 0 0 0 0 0 0 0 0 0 0 127 0"/>
<feOffset dy="4"/>
<feGaussianBlur stdDeviation="2"/>
<feColorMatrix type="matrix" values="0 0 0 0 0 0 0 0 0 0 0 0 0 0 0 0 0 0 0.25 0"/>
<feBlend mode="normal" in2="BackgroundImageFix" result="effect1_dropShadow"/>
<feBlend mode="normal" in="SourceGraphic" in2="effect1_dropShadow" result="shape"/>
</filter>
</defs>
</svg>
